<svg xmlns="http://www.w3.org/2000/svg" xmlns:xlink="http://www.w3.org/1999/xlink" width="50" height="46.4" viewBox="0 0 50 46.4">
  <defs>
    <style>
      .cls-1 {
        clip-path: url(#clip-custom_1);
      }

      .cls-2 {
        fill: #292929;
      }

      .cls-2, .cls-4, .cls-5 {
        stroke: #292929;
      }

      .cls-3, .cls-9 {
        fill: #fff;
      }

      .cls-4, .cls-5, .cls-7 {
        fill: none;
      }

      .cls-4, .cls-5 {
        stroke-width: 2px;
      }

      .cls-5 {
        stroke-linecap: round;
      }

      .cls-6, .cls-8 {
        stroke: none;
      }

      .cls-8 {
        fill: #fdfdfd;
      }
    </style>
    <clipPath id="clip-custom_1">
      <rect width="50" height="46.4"/>
    </clipPath>
  </defs>
  <g id="custom_1" data-name="custom – 1" class="cls-1">
    <rect class="cls-9" width="50" height="46.4"/>
    <g id="Group_1" data-name="Group 1" transform="translate(135 11.13)">
      <g id="Group_2" data-name="Group 2" transform="translate(-135 -10.232)">
        <g id="Group_1-2" data-name="Group 1" transform="translate(0 0)">
          <g id="Rectangle_1" data-name="Rectangle 1" class="cls-2" transform="translate(6.746 13.316)">
            <rect class="cls-6" width="36.508" height="26.263"/>
            <rect class="cls-7" x="0.5" y="0.5" width="35.508" height="25.263"/>
          </g>
          <g id="Group_3" data-name="Group 3" transform="translate(15.527 20.223)">
            <g id="Subtraction_2" data-name="Subtraction 2" class="cls-3" transform="translate(2.521 4.833)">
              <path class="cls-6" d="M0,2.4H0A8.07,8.07,0,0,1,3.053.661,13.706,13.706,0,0,1,7.338,0a13.847,13.847,0,0,1,3.774.5,9.374,9.374,0,0,1,2.912,1.351,22.8,22.8,0,0,0-6.231-.817A20.87,20.87,0,0,0,0,2.4Z"/>
              <path class="cls-8" d="M 0.0002563250600360334 2.398217916488647 L -3.674926801977563e-06 2.397887945175171 C 0.7405763268470764 1.681017875671387 1.79620635509491 1.080387830734253 3.0527663230896 0.6609178781509399 C 4.347986221313477 0.2285378873348236 5.829626560211182 -2.114639300998533e-06 7.337526321411133 -2.114639300998533e-06 C 8.662816047668457 -2.114639300998533e-06 9.932676315307617 0.1694378852844238 11.11181640625 0.5035978555679321 C 12.23601627349854 0.8221879005432129 13.24281597137451 1.289257884025574 14.02337646484375 1.854317903518677 C 12.17655658721924 1.32014787197113 10.02186679840088 1.037617921829224 7.792026519775391 1.037617921829224 C 4.87204647064209 1.037617921829224 2.104886293411255 1.520817875862122 0.0002563250600360334 2.398217916488647 Z"/>
            </g>
            <g id="Subtraction_4" data-name="Subtraction 4" class="cls-3" transform="translate(4.207 9.893)">
              <path class="cls-6" d="M0,2.4H0A6.129,6.129,0,0,1,2.374.661,8.514,8.514,0,0,1,5.707,0,8.546,8.546,0,0,1,8.642.5a6.707,6.707,0,0,1,2.264,1.351A14.066,14.066,0,0,0,6.06,1.038,13.075,13.075,0,0,0,0,2.4Z"/>
              <path class="cls-8" d="M 0.0001963761897059157 2.398217916488647 L -3.623809789132793e-06 2.397887945175171 C 0.575956404209137 1.681017875671387 1.396936416625977 1.080387830734253 2.374186277389526 0.6609178781509399 C 3.381486415863037 0.2285378873348236 4.533786296844482 -2.114639300998533e-06 5.706496238708496 -2.114639300998533e-06 C 6.737196445465088 -2.114639300998533e-06 7.724776268005371 0.1694378852844238 8.641816139221191 0.5035978555679321 C 9.516116142272949 0.8221879005432129 10.29912662506104 1.289257884025574 10.90617656707764 1.854317903518677 C 9.469876289367676 1.32014787197113 7.794146537780762 1.037617921829224 6.059966564178467 1.037617921829224 C 3.789066314697266 1.037617921829224 1.636996388435364 1.520817875862122 0.0001963761897059157 2.398217916488647 Z"/>
            </g>
            <g id="Subtraction_3" data-name="Subtraction 3" class="cls-3" transform="translate(0 0)">
              <path class="cls-6" d="M0,2.479H0A12.153,12.153,0,0,1,4.146.683,24.029,24.029,0,0,1,9.964,0,24.383,24.383,0,0,1,15.09.521a14.831,14.831,0,0,1,3.954,1.4,40.158,40.158,0,0,0-8.462-.844A36.377,36.377,0,0,0,0,2.479Z"/>
              <path class="cls-8" d="M 0.000346907036146149 2.478724956512451 L -3.092956603722996e-06 2.478384971618652 C 1.005716919898987 1.737454891204834 2.439266920089722 1.116654872894287 4.145687103271484 0.6831048727035522 C 5.904606819152832 0.2362148612737656 7.916697025299072 4.862441983277677e-06 9.964447021484375 4.862441983277677e-06 C 11.7642068862915 4.862441983277677e-06 13.48866653442383 0.1751248687505722 15.08996677398682 0.520504891872406 C 16.61663627624512 0.849794864654541 17.98388671875 1.332534909248352 19.04389762878418 1.91656482219696 C 16.53589630126953 1.364474892616272 13.60980701446533 1.072454810142517 10.58166694641113 1.072454810142517 C 6.616306781768799 1.072454810142517 2.85845685005188 1.571874856948853 0.000346907036146149 2.478724956512451 Z"/>
            </g>
          </g>
          <g id="Rectangle_1527" data-name="Rectangle 1527" class="cls-4" transform="translate(0 7.197)">
            <rect class="cls-6" width="50" height="37.892" rx="2"/>
            <rect class="cls-7" x="1" y="1" width="48" height="35.892" rx="1"/>
          </g>
          <line id="Line_2" data-name="Line 2" class="cls-5" x1="13.115" y1="7.373" transform="translate(11.801)"/>
          <line id="Line_3" data-name="Line 3" class="cls-5" y1="7.373" x2="12.976" transform="translate(24.926)"/>
        </g>
      </g>
    </g>
  </g>
</svg>
